<?xml version="1.0" encoding="UTF-8"?>
<svg width="256px" height="76px" viewBox="0 0 256 76" version="1.1" xmlns="http://www.w3.org/2000/svg" xmlns:xlink="http://www.w3.org/1999/xlink">
    <!-- Generator: Sketch 48.1 (47250) - http://www.bohemiancoding.com/sketch -->
    <title>Apple_store_official</title>
    <desc>Created with Sketch.</desc>
    <defs></defs>
    <g id="Desktop-HD" stroke="none" stroke-width="1" fill="none" fill-rule="evenodd" transform="translate(-428.000000, -3337.000000)">
        <g id="Apple_store_official" transform="translate(428.000000, 3337.000000)" fill-rule="nonzero">
            <path d="M246.897778,76 L8.96948148,76 C4.02010065,75.9895489 0.0104307636,71.9720476 0,67.013 L0,8.987 C-6.06654245e-16,4.02361695 4.01577365,9.11758674e-16 8.96948148,0 L246.897778,0 C251.873411,-0.000530154086 255.927439,4.00217908 256,8.987 L256,67.013 C255.927439,71.9978209 251.873411,76.0005302 246.897778,76 Z" id="Shape" fill="#A6A6A6"></path>
            <path d="M254.103704,67.013 C254.103704,71.0319761 250.852031,74.29 246.840889,74.29 L8.96948148,74.29 C7.03997976,74.2950477 5.18777903,73.5305949 3.82163295,72.1653452 C2.45548687,70.8000955 1.68769713,68.9462769 1.6877037,67.013 L1.6877037,8.968 C1.6981574,4.94595242 4.95526054,1.69098636 8.96948148,1.691 L246.897778,1.691 C250.886685,1.72230669 254.103826,4.97117894 254.103704,8.968 L254.103704,67.013 Z" id="Shape" fill="#000000"></path>
            <path d="M57.1354074,37.582 C57.1872268,33.8092248 59.161904,30.3252846 62.3691852,28.348 C60.3325049,25.433704 57.0435722,23.65224 53.4945185,23.541 C49.7019259,23.142 46.1558519,25.783 44.2405926,25.783 C42.3253333,25.783 39.3671111,23.579 36.2192593,23.655 C32.0710934,23.7921129 28.2989943,26.100184 26.2826667,29.735 C21.9780741,37.183 25.1828148,48.146 29.3167407,54.169 C31.3837037,57.114 33.792,60.42 36.9019259,60.306 C40.0118519,60.192 41.1306667,58.406 44.8474074,58.406 C48.5641481,58.406 49.6071111,60.306 52.8308148,60.306 C56.0545185,60.306 58.2162963,57.342 60.2074074,54.359 C61.6874775,52.2590111 62.8266913,49.9376579 63.5828148,47.481 C59.6338056,45.7909631 57.0893181,41.884295 57.1354074,37.582 Z" id="Shape" fill="#FFFFFF"></path>
            <path d="M51.0672593,19.589 C52.8730393,17.4212609 53.7641893,14.6335339 53.5514074,11.818 C50.7968193,12.1051073 48.2511818,13.4211133 46.4213333,15.504 C44.6156941,17.5621884 43.7014569,20.2555692 43.8802963,22.99 C46.6695004,23.019586 49.3182541,21.7661481 51.0672593,19.589 Z" id="Shape" fill="#FFFFFF"></path>
            <path d="M101.736296,59.85 L97.4127407,59.85 L95.0613333,52.421 L86.8693333,52.421 L84.6127407,59.85 L80.4219259,59.85 L88.5380741,34.58 L93.5632593,34.58 L101.736296,59.85 Z M94.3597037,49.4 L92.2358519,42.788 C91.9956543,42.066 91.5911111,40.47 91.0222222,38 C90.7693827,39.0766667 90.3711605,40.6663333 89.8275556,42.769 L87.570963,49.4 L94.3597037,49.4 Z" id="Shape" fill="#FFFFFF"></path>
            <path d="M122.614519,50.521 C122.764199,53.2046068 121.866587,55.8413819 120.111407,57.874 C118.684516,59.4401544 116.652261,60.3128219 114.536296,60.268 C112.47138,60.4336866 110.485029,59.4385712 109.37837,57.684 L109.37837,67.279 L105.244444,67.279 L105.244444,47.633 C105.244444,45.6823333 105.193877,43.681 105.092741,41.629 L108.657778,41.629 L108.885333,44.517 C110.124875,42.6090546 112.191873,41.4007682 114.459556,41.2585273 C116.727239,41.1162863 118.928499,42.0568452 120.395852,43.795 C121.925559,45.692929 122.714128,48.083516 122.614519,50.521 Z M118.499556,50.673 C118.557943,49.1220979 118.141038,47.5904613 117.304889,46.284 C116.512069,45.1204698 115.183344,44.4404944 113.777778,44.479 C112.785938,44.4779824 111.825591,44.8278819 111.066074,45.467 C110.255845,46.1285543 109.694151,47.0464402 109.473185,48.07 C109.361603,48.4727366 109.297951,48.8872825 109.283556,49.305 L109.283556,52.345 C109.247215,53.57974 109.681112,54.7820792 110.497185,55.708 C111.295689,56.6152938 112.457394,57.1171269 113.664,57.076 C115.075638,57.1361308 116.420155,56.4697249 117.229037,55.309 C118.132182,53.9376209 118.577091,52.3141901 118.499556,50.673 Z" id="Shape" fill="#FFFFFF"></path>
            <path d="M143.54963,50.521 C143.69931,53.2046068 142.801698,55.8413819 141.046519,57.874 C139.621103,59.4422341 137.587857,60.3153272 135.471407,60.268 C133.406491,60.4336866 131.42014,59.4385712 130.313481,57.684 L130.313481,67.279 L126.179556,67.279 L126.179556,47.633 C126.179556,45.6823333 126.128988,43.681 126.027852,41.629 L129.592889,41.629 L129.820444,44.517 C131.059986,42.6090546 133.126984,41.4007682 135.394667,41.2585273 C137.66235,41.1162863 139.86361,42.0568452 141.330963,43.795 C142.859127,45.693772 143.647499,48.0837606 143.54963,50.521 Z M139.434667,50.673 C139.493054,49.1220979 139.076149,47.5904613 138.24,46.284 C137.432615,45.0970899 136.069145,44.4140232 134.637037,44.479 C133.645198,44.4779824 132.68485,44.8278819 131.925333,45.467 C131.113949,46.127541 130.551985,47.0458678 130.332444,48.07 C130.221883,48.4729558 130.15825,48.8873809 130.142815,49.305 L130.142815,52.345 C130.10838,53.5794337 130.542031,54.7810939 131.356444,55.708 C132.194838,56.6192609 133.403746,57.0953669 134.637037,57 C136.048675,57.0601308 137.393192,56.3937249 138.202074,55.233 C139.076452,53.8785187 139.507331,52.2844729 139.434667,50.673 Z" id="Shape" fill="#FFFFFF"></path>
            <path d="M166.874074,52.763 C166.938725,54.7565111 166.119473,56.6764705 164.636444,58.007 C162.706998,59.5834913 160.257196,60.3768244 157.771852,60.23 C155.485853,60.3379164 153.216497,59.790889 151.22963,58.653 L152.158815,55.271 C153.917991,56.3428587 155.940561,56.9021254 157.999407,56.886 C159.270309,56.9663975 160.52985,56.6039079 161.564444,55.86 C162.398499,55.1942997 162.869555,54.1728588 162.834963,53.105 C162.857571,52.136461 162.480205,51.2015163 161.792,50.521 C160.771394,49.654467 159.583685,49.0077122 158.302815,48.621 C153.903407,46.9236667 151.703704,44.4853333 151.703704,41.306 C151.635929,39.2943677 152.513369,37.3672617 154.074074,36.1 C155.835636,34.7346752 158.033342,34.0592153 160.256,34.2 C162.220682,34.135892 164.17191,34.5464503 165.944889,35.397 L164.977778,38.703 C163.489996,37.9123305 161.826055,37.5135125 160.142222,37.544 C158.939235,37.4685123 157.750775,37.8406314 156.804741,38.589 C156.155791,39.1671562 155.789118,39.9989799 155.799704,40.869 C155.783045,41.8273205 156.210172,42.7393692 156.956444,43.339 C158.074516,44.1636006 159.316274,44.804932 160.635259,45.239 C162.450266,45.8799697 164.092403,46.93351 165.432889,48.317 C166.453669,49.564972 166.96818,51.152221 166.874074,52.763 Z" id="Shape" fill="#FFFFFF"></path>
            <path d="M180.318815,44.669 L175.862519,44.669 L175.862519,53.523 C175.862519,55.7776667 176.646321,56.905 178.213926,56.905 C178.820014,56.918047 179.425315,56.8542067 180.015407,56.715 L180.148148,59.774 C179.133436,60.1087761 178.068092,60.2631025 177.000296,60.23 C175.583399,60.3215061 174.19754,59.7869084 173.207704,58.767 C172.172875,57.3470834 171.693827,55.596158 171.861333,53.846 L171.861333,44.669 L169.206519,44.669 L169.206519,41.629 L171.861333,41.629 L171.861333,38.285 L175.824593,37.088 L175.824593,41.629 L180.280889,41.629 L180.318815,44.669 Z" id="Shape" fill="#FFFFFF"></path>
            <path d="M200.419556,50.597 C200.519677,53.1156385 199.666236,55.5791639 198.030222,57.494 C196.323552,59.3613605 193.880012,60.3768538 191.355259,60.268 C188.942642,60.3728182 186.608247,59.3982536 184.983704,57.608 C183.373336,55.7543833 182.52604,53.3569458 182.613333,50.901 C182.509502,48.3603345 183.385439,45.8770676 185.059556,43.966 C186.756687,42.1387336 189.170143,41.152009 191.658667,41.268 C194.093184,41.1641318 196.450418,42.1366533 198.106074,43.928 C199.703665,45.7706714 200.532096,48.1587628 200.419556,50.597 Z M196.228741,50.73 C196.274918,49.213664 195.900775,47.7141708 195.147852,46.398 C194.454494,45.0378692 193.050064,44.1906179 191.525926,44.213 C189.944581,44.1377583 188.463933,44.9907939 187.733333,46.398 C186.974201,47.7393363 186.600115,49.2649065 186.652444,50.806 C186.612307,52.3096329 186.986279,53.7952945 187.733333,55.1 C188.45085,56.4526429 189.854866,57.2980716 191.383704,57.2980716 C192.912542,57.2980716 194.316558,56.4526429 195.034074,55.1 C195.832682,53.7840867 196.246603,52.2699919 196.228741,50.73 Z" id="Shape" fill="#FFFFFF"></path>
            <path d="M213.560889,45.182 C213.141716,45.1054257 212.716453,45.067268 212.29037,45.068 C210.986388,45.0013643 209.739885,45.6114776 208.990815,46.683 C208.283575,47.7497286 207.931737,49.0134996 207.985778,50.293 L207.985778,59.793 L203.946667,59.793 L203.946667,47.31 C203.946667,45.2073333 203.896099,43.3073333 203.794963,41.61 L207.322074,41.61 L207.473778,45.106 L207.587556,45.106 C207.971805,43.9674329 208.676452,42.9644844 209.616593,42.218 C210.460717,41.5887908 211.484792,41.2489867 212.536889,41.249 C212.871397,41.2229516 213.207418,41.2229516 213.541926,41.249 L213.560889,45.182 Z" id="Shape" fill="#FFFFFF"></path>
            <path d="M231.651556,49.875 C231.664688,50.5118275 231.613864,51.1483639 231.499852,51.775 L219.363556,51.775 C219.310854,53.3436008 219.957096,54.8544442 221.127111,55.898 C222.254767,56.7816384 223.660144,57.2330457 225.09037,57.171 C226.766457,57.1961462 228.432385,56.9061339 230.001778,56.316 L230.627556,59.128 C228.691075,59.919381 226.6122,60.3010369 224.521481,60.249 C222.052991,60.3888265 219.638932,59.486093 217.865481,57.76 C216.202114,55.9432201 215.334704,53.5343643 215.457185,51.072 C215.371912,48.5896166 216.171918,46.1579679 217.713778,44.213 C219.251583,42.2769241 221.617677,41.1903461 224.085333,41.287 C226.442906,41.1585146 228.697782,42.2665691 230.039704,44.213 C231.13992,45.8918304 231.702278,47.8672404 231.651556,49.875 Z M227.858963,48.83 C227.914399,47.7370196 227.643736,46.6522562 227.081481,45.714 C226.40244,44.5955986 225.161992,43.9449193 223.857778,44.023 C222.573104,43.9911966 221.359744,44.6133642 220.634074,45.676 C219.945058,46.5923611 219.530682,47.6863418 219.439407,48.83 L227.858963,48.83 Z" id="Shape" fill="#FFFFFF"></path>
            <path d="M92.9185185,19 C93.0913444,20.8922287 92.3931379,22.7600809 91.0222222,24.073 C89.5044218,25.201141 87.6364097,25.7532136 85.7505185,25.631 C84.781256,25.6379714 83.8124366,25.5872152 82.8491852,25.479 L82.8491852,13.3 C83.984322,13.119327 85.1321173,13.0303739 86.2814815,13.034 C88.0358198,12.9071179 89.7776707,13.4125001 91.1928889,14.459 C92.4154524,15.6389073 93.0482766,17.3041863 92.9185185,19 Z M90.8325926,19 C90.9142479,17.7744602 90.4969318,16.5680489 89.6758519,15.656 C88.7608916,14.8284151 87.5489725,14.4099323 86.3194074,14.497 C85.7854364,14.49062 85.2520705,14.535154 84.7265185,14.63 L84.7265185,23.921 C85.1748453,23.9498963 85.6245621,23.9498963 86.0728889,23.921 C87.377388,24.0675289 88.6836414,23.6611106 89.6758519,22.8 C90.5862746,21.7544979 91.0314588,20.3820252 90.9084444,19 L90.8325926,19 Z" id="Shape" fill="#FFFFFF"></path>
            <path d="M104.12563,20.9 C104.171582,22.1352747 103.751861,23.3426335 102.949926,24.282 C102.111463,25.2007266 100.910767,25.7014142 99.6693333,25.65 C98.4839655,25.6993912 97.3378451,25.2191684 96.5404444,24.339 C95.7433762,23.4268011 95.3229802,22.2446757 95.3647407,21.033 C95.3134214,19.7878515 95.7410521,18.5704641 96.5594074,17.632 C97.3930975,16.7333181 98.5787544,16.2470135 99.8020741,16.302 C100.998159,16.2543617 102.155188,16.7333496 102.968889,17.613 C103.757901,18.5212509 104.171581,19.696765 104.12563,20.9 Z M102.058667,20.9 C102.040836,20.2324753 101.858427,19.5797436 101.527704,19 C101.197053,18.3222057 100.497492,17.9046316 99.7451852,17.936 C98.9585987,17.8832565 98.2150242,18.3004714 97.8488889,19 C97.4757323,19.6590451 97.2919574,20.4087327 97.3179259,21.166 C97.2960245,21.9107823 97.4797615,22.6471659 97.8488889,23.294 C98.2186286,23.9900043 98.9597143,24.4058228 99.7451852,24.358 C100.50187,24.3859557 101.202622,23.9602016 101.527704,23.275 C101.91881,22.595416 102.10335,21.8161935 102.058667,21.033 L102.058667,20.9 Z" id="Shape" fill="#FFFFFF"></path>
            <path d="M119.011556,16.568 L116.224,25.517 L114.327704,25.517 L113.170963,21.717 C112.88176,20.767278 112.641248,19.8033511 112.45037,18.829 C112.278058,19.8074057 112.037266,20.7724543 111.729778,21.717 L110.497185,25.517 L108.600889,25.517 L106.059852,16.568 L108.088889,16.568 L109.112889,20.9 C109.353086,21.9006667 109.555358,22.857 109.719704,23.769 C109.871407,23.0216667 110.117926,22.0716667 110.459259,20.919 L111.729778,16.644 L113.34163,16.644 L114.555259,20.824 C114.846025,21.85 115.086222,22.8316667 115.275852,23.769 C115.425661,22.7772109 115.628221,21.7941447 115.882667,20.824 L116.963556,16.644 L118.859852,16.644 L119.011556,16.568 Z" id="Shape" fill="#FFFFFF"></path>
            <path d="M129.327407,25.517 L127.431111,25.517 L127.431111,20.387 C127.431111,18.8036667 126.830617,18.012 125.62963,18.012 C125.078353,18.0071937 124.55228,18.243002 124.188444,18.658 C123.824696,19.0870694 123.629223,19.6341108 123.638519,20.197 L123.638519,25.517 L121.742222,25.517 L121.742222,19.133 C121.742222,18.3476667 121.742222,17.4926667 121.742222,16.568 L123.259259,16.568 L123.259259,17.974 C123.499308,17.528843 123.852585,17.1552113 124.283259,16.891 C124.823011,16.5522048 125.447831,16.3742776 126.084741,16.378 C126.862301,16.3530661 127.616121,16.6483171 128.170667,17.195 C128.907439,17.9979833 129.278307,19.0714729 129.194667,20.159 L129.327407,25.517 Z" id="Shape" fill="#FFFFFF"></path>
            <polygon id="Shape" fill="#FFFFFF" points="134.807704 25.517 132.740741 25.517 132.740741 12.464 134.637037 12.464"></polygon>
            <path d="M146.507852,20.9 C146.553804,22.1352747 146.134083,23.3426335 145.332148,24.282 C144.493685,25.2007266 143.292989,25.7014142 142.051556,25.65 C140.865711,25.7020646 139.718502,25.2213858 138.922667,24.339 C138.132449,23.4239449 137.718942,22.2421301 137.765926,21.033 C137.719812,19.7852809 138.154344,18.5675755 138.979556,17.632 C139.826913,16.7612661 141.010734,16.3034605 142.222222,16.378 C143.418307,16.3303617 144.575337,16.8093496 145.389037,17.689 C146.146331,18.5833746 146.545056,19.7277146 146.507852,20.9 Z M144.440889,20.9 C144.423058,20.2324753 144.24065,19.5797436 143.909926,19 C143.579276,18.3222057 142.879714,17.9046316 142.127407,17.936 C141.368363,17.8968901 140.659344,18.3156544 140.325926,19 C139.952769,19.6590451 139.768994,20.4087327 139.794963,21.166 C139.790199,21.8786891 139.973362,22.5799998 140.325926,23.199 C140.695666,23.8950043 141.436751,24.3108228 142.222222,24.263 C142.978907,24.2909557 143.679659,23.8652016 144.004741,23.18 C144.346274,22.5187944 144.497297,21.7753606 144.440889,21.033 L144.440889,20.9 Z" id="Shape" fill="#FFFFFF"></path>
            <path d="M156.122074,25.517 L154.339556,25.517 L154.187852,24.491 C153.577894,25.3168594 152.594901,25.7807677 151.570963,25.726 C150.80322,25.7589392 150.058007,25.4616546 149.522963,24.909 C149.036844,24.4001786 148.782829,23.7123112 148.821333,23.009 C148.77879,21.9844063 149.303871,21.0198775 150.186667,20.501 C151.347069,19.8685895 152.660342,19.5725258 153.979259,19.646 L153.979259,19.57 C153.979259,18.392 153.34716,17.803 152.082963,17.803 C151.276074,17.7984586 150.48534,18.0295397 149.807407,18.468 L149.428148,17.1 C150.357844,16.5540526 151.423179,16.2839042 152.500148,16.321 C154.838914,16.321 156.008296,17.556 156.008296,20.026 L156.008296,23.332 C155.989209,24.0621929 156.027252,24.7927618 156.122074,25.517 Z M154.055111,22.439 L154.055111,21.052 C151.868049,21.052 150.774519,21.6536667 150.774519,22.857 C150.745114,23.2437657 150.883293,23.624498 151.153778,23.902 C151.420557,24.1358584 151.766707,24.2582675 152.120889,24.244 C152.560149,24.2412781 152.986427,24.0944588 153.334519,23.826 C153.791987,23.5055625 154.061742,22.9792242 154.055111,22.42 L154.055111,22.439 Z" id="Shape" fill="#FFFFFF"></path>
            <path d="M167.424,25.517 L165.660444,25.517 L165.660444,24.073 C165.121255,25.1455121 163.992759,25.7894871 162.797037,25.707 C161.750445,25.7265947 160.754651,25.2558305 160.104296,24.434 C159.364166,23.496281 158.987046,22.3222276 159.04237,21.128 C158.983434,19.8536754 159.395252,18.6022798 160.199111,17.613 C160.889108,16.8021718 161.90436,16.3423258 162.967704,16.359 C163.969902,16.2558812 164.94487,16.7259553 165.489778,17.575 L165.489778,12.464 L167.386074,12.464 L167.386074,23.123 C167.36079,23.9843333 167.373432,24.7823333 167.424,25.517 Z M165.357037,21.717 L165.357037,20.216 C165.379451,20.0076033 165.379451,19.7973967 165.357037,19.589 C165.252788,19.1168926 165.000233,18.6907047 164.636444,18.373 C164.274236,18.0427769 163.79857,17.8657557 163.309037,17.879 C162.61391,17.8606093 161.956957,18.1968819 161.564444,18.772 C161.116349,19.4384097 160.890625,20.2299886 160.919704,21.033 C160.88109,21.8019539 161.094162,22.5625066 161.526519,23.199 C161.919031,23.7741181 162.575984,24.1103907 163.271111,24.092 C163.884529,24.1147994 164.471017,23.8386824 164.845037,23.351 C165.201911,22.8907789 165.383433,22.3182033 165.357037,21.736 L165.357037,21.717 Z" id="Shape" fill="#FFFFFF"></path>
            <path d="M184.414815,20.9 C184.460767,22.1352747 184.041046,23.3426335 183.239111,24.282 C182.402191,25.2029256 181.200422,25.7040608 179.958519,25.65 C178.773151,25.6993912 177.62703,25.2191684 176.82963,24.339 C176.039412,23.4239449 175.625905,22.2421301 175.672889,21.033 C175.626775,19.7852809 176.061307,18.5675755 176.886519,17.632 C177.738294,16.7560611 178.930201,16.297808 180.148148,16.378 C181.344692,16.3277702 182.502763,16.8071894 183.314963,17.689 C184.065426,18.5861419 184.457294,19.7301925 184.414815,20.9 Z M182.347852,20.9 C182.330021,20.2324753 182.147613,19.5797436 181.816889,19 C181.486239,18.3222057 180.786677,17.9046316 180.03437,17.936 C179.288142,17.9279438 178.600069,18.3386605 178.251852,19 C177.878695,19.6590451 177.69492,20.4087327 177.720889,21.166 C177.716125,21.8786891 177.899288,22.5799998 178.251852,23.199 C178.603925,23.8632308 179.293226,24.2784442 180.043852,24.2784442 C180.794478,24.2784442 181.483779,23.8632308 181.835852,23.199 C182.205228,22.5391441 182.382605,21.7887578 182.347852,21.033 L182.347852,20.9 Z" id="Shape" fill="#FFFFFF"></path>
            <path d="M195.090963,25.517 L193.194667,25.517 L193.194667,20.387 C193.194667,18.8036667 192.562568,18.012 191.29837,18.012 C190.743802,17.9908036 190.211019,18.2296191 189.857185,18.658 C189.491896,19.0861757 189.296207,19.6338216 189.307259,20.197 L189.307259,25.517 L187.410963,25.517 L187.410963,19.133 C187.410963,18.3476667 187.410963,17.4926667 187.410963,16.568 L189.155556,16.568 L189.155556,17.974 C189.397054,17.5298972 189.75001,17.156605 190.179556,16.891 C190.746458,16.5343656 191.40684,16.3557142 192.075852,16.378 C192.853412,16.3530661 193.607233,16.6483171 194.161778,17.195 C194.89855,17.9979833 195.269418,19.0714729 195.185778,20.159 L195.090963,25.517 Z" id="Shape" fill="#FFFFFF"></path>
            <path d="M208.478815,18.05 L206.298074,18.05 L206.298074,22.401 C206.298074,23.503 206.696296,24.054 207.454815,24.054 C207.750693,24.0919655 208.050196,24.0919655 208.346074,24.054 L208.346074,25.574 C207.851336,25.7394787 207.331446,25.8166499 206.810074,25.802 C206.101933,25.8581895 205.40597,25.5932069 204.913778,25.08 C204.404539,24.3845085 204.168316,23.5256825 204.250074,22.667 L204.250074,18.05 L202.94163,18.05 L202.94163,16.568 L204.250074,16.568 L204.250074,14.934 L206.14637,14.345 L206.14637,16.568 L208.327111,16.568 L208.327111,18.05 L208.478815,18.05 Z" id="Shape" fill="#FFFFFF"></path>
            <path d="M218.984296,25.517 L217.088,25.517 L217.088,20.425 C217.088,18.8163333 216.487506,18.012 215.286519,18.012 C214.410422,17.9795442 213.626331,18.5530487 213.390222,19.399 C213.355467,19.638407 213.355467,19.881593 213.390222,20.121 L213.390222,25.517 L211.493926,25.517 L211.493926,12.464 L213.390222,12.464 L213.390222,17.86 C213.952366,16.9147228 214.985613,16.3533467 216.082963,16.397 C216.813285,16.3586461 217.529088,16.611374 218.074074,17.1 C218.798269,17.9245891 219.16053,19.0066455 219.079111,20.102 L218.984296,25.517 Z" id="Shape" fill="#FFFFFF"></path>
            <path d="M229.850074,20.615 C229.878921,20.918313 229.878921,21.223687 229.850074,21.527 L223.762963,21.527 C223.737449,22.3009337 224.057163,23.046069 224.635259,23.56 C225.175721,23.9829026 225.846032,24.2045373 226.531556,24.187 C227.35333,24.199583 228.170184,24.0578043 228.939852,23.769 L229.243259,25.156 C228.292005,25.5407774 227.272739,25.7282234 226.247111,25.707 C225.037899,25.7773274 223.854694,25.3362052 222.985481,24.491 C222.170168,23.5972378 221.746655,22.4131925 221.809778,21.204 C221.766663,19.9877729 222.156492,18.7957987 222.90963,17.841 C223.661671,16.8854642 224.82496,16.3485999 226.038519,16.397 C227.196947,16.3337819 228.304221,16.8812965 228.958815,17.841 C229.536355,18.6504178 229.847875,19.6200077 229.850074,20.615 Z M227.953778,20.102 C227.985202,19.5624124 227.852993,19.0259202 227.574519,18.563 C227.242109,18.0167286 226.638396,17.6960629 226.000593,17.727 C225.373383,17.7217642 224.784167,18.0276169 224.426667,18.544 C224.092164,18.9925066 223.888641,19.5253305 223.838815,20.083 L227.953778,20.102 Z" id="Shape" fill="#FFFFFF"></path>
        </g>
    </g>
</svg>