<?xml version="1.0" encoding="UTF-8"?>
<svg width="45px" height="45px" viewBox="0 0 45 45" version="1.1" xmlns="http://www.w3.org/2000/svg" xmlns:xlink="http://www.w3.org/1999/xlink">
    <!-- Generator: Sketch 48.1 (47250) - http://www.bohemiancoding.com/sketch -->
    <title>Shape</title>
    <desc>Created with Sketch.</desc>
    <defs></defs>
    <g id="Footer" stroke="none" stroke-width="1" fill="none" fill-rule="evenodd" transform="translate(-329.000000, -23.000000)">
        <g fill="#FFFFFF" fill-rule="nonzero" id="linkedin">
            <g transform="translate(147.000000, 23.000000)">
                <path d="M204.5,45 C216.926407,45 227,34.9264069 227,22.5 C227,10.0735931 216.926407,7.6089797e-16 204.5,0 C192.073593,-7.6089797e-16 182,10.0735931 182,22.5 C182,34.9264069 192.073593,45 204.5,45 Z M217,19.1928571 L217,30.2714286 C217.000006,31.5033954 216.003389,32.5032069 214.771429,32.5071429 L194.235714,32.5071429 C193.000963,32.5071429 192,31.5061795 192,30.2714286 L192,19.1928571 C192.422726,19.6566072 192.902777,20.0646497 193.428571,20.4071429 C196.795238,22.6928571 199.107143,24.297619 200.364286,25.2214286 C200.892857,25.6119048 201.32381,25.9166667 201.657143,26.1357143 C202.075912,26.399899 202.518283,26.6246713 202.978571,26.8071429 C203.462786,27.0218003 203.984752,27.1383324 204.514286,27.15 C205.043773,27.1379566 205.565667,27.0214408 206.05,26.8071429 C206.510288,26.6246713 206.952659,26.399899 207.371429,26.1357143 C207.809524,25.8404762 208.240476,25.5357143 208.664286,25.2214286 C210.245238,24.0785714 212.561905,22.4738095 215.614286,20.4071429 C216.123169,20.0593563 216.588409,19.6516712 217,19.1928571 Z M217,15.0928571 C216.99156,15.8642146 216.741777,16.6135645 216.285714,17.2357143 C215.828642,17.9062884 215.25244,18.487332 214.585714,18.95 L208.057143,23.4857143 L207.464286,23.9142857 L206.707143,24.4428571 C206.507143,24.5761905 206.269048,24.7261905 205.992857,24.8928571 C205.740192,25.0467305 205.472052,25.1736182 205.192857,25.2714286 C204.963454,25.3532792 204.722118,25.3967197 204.478571,25.4 C204.235038,25.3965898 203.993723,25.3531531 203.764286,25.2714286 C203.485111,25.1735694 203.216976,25.0466841 202.964286,24.8928571 C202.716667,24.75 202.478571,24.6 202.25,24.4428571 L201.5,23.9142857 L200.907143,23.4857143 L197.25,20.9428571 L194.392857,18.9571429 C193.764278,18.5130335 193.213916,17.9674993 192.764286,17.3428571 C192.303245,16.7966425 192.034681,16.1139368 192,15.4 C191.976407,14.7420196 192.180786,14.0960823 192.578571,13.5714286 C192.985337,13.0825561 193.601004,12.8171824 194.235714,12.8571429 L214.771429,12.8571429 C216.000146,12.868821 216.992254,13.8641086 217,15.0928571 Z" id="Shape"></path>
            </g>
        </g>
    </g>
</svg>