<?xml version="1.0" encoding="UTF-8"?>
<svg width="45px" height="45px" viewBox="0 0 45 45" version="1.1" xmlns="http://www.w3.org/2000/svg" xmlns:xlink="http://www.w3.org/1999/xlink">
    <!-- Generator: Sketch 48.1 (47250) - http://www.bohemiancoding.com/sketch -->
    <title>Shape</title>
    <desc>Created with Sketch.</desc>
    <defs></defs>
    <g id="Footer" stroke="none" stroke-width="1" fill="none" fill-rule="evenodd" transform="translate(-147.000000, -23.000000)">
        <g fill="#FFFFFF" fill-rule="nonzero" id="linkedin">
            <g transform="translate(147.000000, 23.000000)">
                <path d="M22.5,45 C34.9264069,45 45,34.9264069 45,22.5 C45,10.0735931 34.9264069,7.6089797e-16 22.5,0 C10.0735931,-7.6089797e-16 1.52179594e-15,10.0735931 0,22.5 C-1.52179594e-15,34.9264069 10.0735931,45 22.5,45 Z M29.8071429,8.77857143 L29.8071429,13.3 L27.1428571,13.3 C26.4234172,13.2097234 25.699934,13.4335347 25.1571429,13.9142857 C24.7774261,14.4531571 24.5957308,15.1067552 24.6428571,15.7642857 L24.6428571,19 L29.6428571,19 L28.9714286,24.0714286 L24.6142857,24.0714286 L24.6142857,37.0928571 L19.3714286,37.0928571 L19.3714286,24.0857143 L15,24.0857143 L15,19.0142857 L19.3714286,19.0142857 L19.3714286,15.2714286 C19.2582601,13.449178 19.9017172,11.6609356 21.15,10.3285714 C22.4288765,9.12188734 24.1437049,8.48752976 25.9,8.57142857 C27.2055972,8.55041469 28.5110864,8.61962709 29.8071429,8.77857143 Z" id="Shape"></path>
            </g>
        </g>
    </g>
</svg>