<?xml version="1.0" encoding="UTF-8"?>
<svg width="256px" height="76px" viewBox="0 0 256 76" version="1.1" xmlns="http://www.w3.org/2000/svg" xmlns:xlink="http://www.w3.org/1999/xlink">
    <!-- Generator: Sketch 48.1 (47250) - http://www.bohemiancoding.com/sketch -->
    <title>gplay_offical</title>
    <desc>Created with Sketch.</desc>
    <defs>
        <linearGradient x1="91.4762131%" y1="4.98802873%" x2="-38.5502813%" y2="71.9473264%" id="linearGradient-1">
            <stop stop-color="#00A0FF" offset="0%"></stop>
            <stop stop-color="#00A1FF" offset="1%"></stop>
            <stop stop-color="#00BEFF" offset="26%"></stop>
            <stop stop-color="#00D2FF" offset="51%"></stop>
            <stop stop-color="#00DFFF" offset="76%"></stop>
            <stop stop-color="#00E3FF" offset="100%"></stop>
        </linearGradient>
        <linearGradient x1="107.684729%" y1="50%" x2="-130.640394%" y2="50%" id="linearGradient-2">
            <stop stop-color="#FFE000" offset="0%"></stop>
            <stop stop-color="#FFBD00" offset="41%"></stop>
            <stop stop-color="#FFA500" offset="78%"></stop>
            <stop stop-color="#FF9C00" offset="100%"></stop>
        </linearGradient>
        <linearGradient x1="86.219293%" y1="17.8768889%" x2="-50.1497903%" y2="194.702638%" id="linearGradient-3">
            <stop stop-color="#FF3A44" offset="0%"></stop>
            <stop stop-color="#C31162" offset="100%"></stop>
        </linearGradient>
        <linearGradient x1="-18.7537448%" y1="-54.0521474%" x2="42.1210306%" y2="24.9170664%" id="linearGradient-4">
            <stop stop-color="#32A071" offset="0%"></stop>
            <stop stop-color="#2DA771" offset="7%"></stop>
            <stop stop-color="#15CF74" offset="48%"></stop>
            <stop stop-color="#06E775" offset="80%"></stop>
            <stop stop-color="#00F076" offset="100%"></stop>
        </linearGradient>
    </defs>
    <g id="Desktop-HD" stroke="none" stroke-width="1" fill="none" fill-rule="evenodd" transform="translate(-720.000000, -3337.000000)">
        <g id="gplay_offical" transform="translate(720.000000, 3337.000000)" fill-rule="nonzero">
            <rect id="Rectangle-path" fill="#000000" x="0" y="0" width="256" height="76" rx="9.49999988"></rect>
            <path d="M246.518519,1.52 C250.91716,1.52 254.482963,5.0927677 254.482963,9.5 L254.482963,66.5 C254.482963,70.9072323 250.91716,74.48 246.518519,74.48 L9.48148148,74.48 C5.08284027,74.48 1.51703704,70.9072323 1.51703704,66.5 L1.51703704,9.5 C1.51703704,5.0927677 5.08284027,1.52 9.48148148,1.52 L246.518519,1.52 Z M246.518519,0 L9.48148148,0 C4.24500385,-3.21268032e-16 6.41283557e-16,4.25329488 0,9.5 L0,66.5 C6.41283557e-16,71.7467051 4.24500385,76 9.48148148,76 L246.518519,76 C251.754996,76 256,71.7467051 256,66.5 L256,9.5 C256,4.25329488 251.754996,3.21268032e-16 246.518519,0 Z" id="Shape" fill="#A6A6A6"></path>
            <path d="M89.9223704,19.456 C89.9875149,20.864339 89.4734556,22.2378411 88.5001481,23.256 C87.4125269,24.3880261 85.8955545,25.002909 84.3282963,24.947 C82.7742238,24.9621909 81.277787,24.3581631 80.1682224,23.2678108 C79.0586578,22.1774586 78.4268667,20.6901092 78.4118519,19.133 L78.4118519,19 C78.3690741,15.7937013 80.9017557,13.1461092 84.1007407,13.053 L84.2334815,13.053 C85.0351552,13.0503237 85.8289037,13.2119698 86.5659259,13.528 C87.2521092,13.8053118 87.8629624,14.2415575 88.3484444,14.801 L87.3434074,15.808 C86.5760651,14.8934852 85.4241372,14.3938107 84.2334815,14.459 C83.0666828,14.45395 81.9456722,14.9135267 81.1170646,15.7366262 C80.2884571,16.5597257 79.8201296,17.6789223 79.8151111,18.848 L79.8151111,19 C79.7897044,20.8110604 80.854237,22.4595951 82.5134142,23.1785908 C84.1725915,23.8975865 86.1005607,23.5458367 87.4002963,22.287 C87.9838047,21.6534196 88.320347,20.8306525 88.3484444,19.969 L84.3282963,19.969 L84.3282963,18.601 L89.8465185,18.601 C89.8970987,18.8831768 89.922483,19.1693083 89.9223704,19.456 Z M98.6074074,14.706 L93.4874074,14.706 L93.4874074,18.316 L98.1522963,18.316 L98.1522963,19.684 L93.4874074,19.684 L93.4874074,23.294 L98.6074074,23.294 L98.6074074,24.7 L91.9703704,24.7 L91.9703704,13.3 L98.6074074,13.3 L98.6074074,14.706 Z M104.827259,24.7 L103.367111,24.7 L103.367111,14.706 L100.181333,14.706 L100.181333,13.3 L108.088889,13.3 L108.088889,14.706 L104.827259,14.706 L104.827259,24.7 Z M113.664,24.7 L113.664,13.3 L115.124148,13.3 L115.124148,24.7 L113.664,24.7 Z M121.609481,24.7 L120.149333,24.7 L120.149333,14.706 L116.963556,14.706 L116.963556,13.3 L124.776296,13.3 L124.776296,14.706 L121.609481,14.706 L121.609481,24.7 Z M139.58637,23.218 C137.278559,25.517433 133.550479,25.517433 131.242667,23.218 C130.141074,22.0952674 129.539237,20.5740304 129.573926,19 C129.52364,16.6097819 130.92952,14.429267 133.124835,13.4925543 C135.32015,12.5558415 137.863393,13.0513155 139.548444,14.744 C140.673506,15.869638 141.290131,17.4073472 141.255111,19 C141.289801,20.5740304 140.687963,22.0952674 139.58637,23.218 Z M132.323556,22.268 C134.032733,23.9733736 136.796304,23.9733736 138.505481,22.268 C139.356127,21.3978924 139.815086,20.217366 139.776,19 C139.795099,17.7714566 139.308076,16.5893214 138.42963,15.732 C136.720452,14.0266264 133.956881,14.0266264 132.247704,15.732 C131.42471,16.6145876 130.993703,17.7936028 131.053037,19 C131.013951,20.217366 131.47291,21.3978924 132.323556,22.268 Z M143.322074,24.7 L143.322074,13.3 L145.104593,13.3 L150.641778,22.173 L150.641778,13.3 L152.101926,13.3 L152.101926,24.7 L150.584889,24.7 L144.782222,15.409 L144.782222,24.7 L143.322074,24.7 Z" id="Shape" stroke="#FFFFFF" stroke-width="0.5" fill="#FFFFFF"></path>
            <path d="M129.21363,41.325 C124.767621,41.3459635 121.178404,44.9704942 121.192336,49.4252142 C121.206268,53.8799342 124.818085,57.4818557 129.264138,57.4749007 C133.710191,57.4679458 137.310766,53.8547419 137.310815,49.4 C137.341208,47.2885483 136.533108,45.2515013 135.064332,43.7370974 C133.595557,42.2226936 131.586453,41.3550191 129.479111,41.325 L129.21363,41.325 Z M129.21363,54.302 C127.238582,54.4434537 125.373177,53.3781472 124.488198,51.6033729 C123.603219,49.8285987 123.873184,47.6943413 125.172071,46.196887 C126.470958,44.6994327 128.542628,44.1340787 130.42001,44.7647362 C132.297392,45.3953937 133.610268,47.0976974 133.745778,49.077 L133.745778,49.4 C133.807624,50.6400016 133.37454,51.8537075 132.542075,52.7733465 C131.70961,53.6929854 130.546173,54.242984 129.308444,54.302 L129.21363,54.302 Z M111.559111,41.325 C107.110589,41.3354876 103.511851,44.955419 103.518825,49.4126369 C103.525799,53.8698547 107.135847,57.4784628 111.58438,57.4749752 C116.032914,57.4714875 119.637321,53.8572233 119.637333,49.4 C119.700995,45.032176 116.240025,41.4287894 111.881481,41.325 L111.634963,41.325 L111.559111,41.325 Z M111.559111,54.302 C109.584831,54.4505445 107.715811,53.3922417 106.824339,51.6210105 C105.932867,49.8497792 106.194695,47.7148139 107.487625,46.2125208 C108.780556,44.7102278 110.84969,44.1367808 112.729346,44.7598125 C114.609002,45.3828441 115.928609,47.0795251 116.072296,49.058 L116.072296,49.4 C116.134142,50.6400016 115.701059,51.8537075 114.868593,52.7733465 C114.036128,53.6929854 112.872691,54.242984 111.634963,54.302 L111.540148,54.302 L111.559111,54.302 Z M90.5291852,43.814 L90.5291852,47.234 L98.7211852,47.234 C98.5927366,48.8448272 97.9244461,50.3648095 96.8248889,51.547 C95.1675693,53.2384268 92.8740375,54.1493502 90.5102222,54.055 C85.4832038,54.0549998 81.4080003,49.9718368 81.4080003,44.935 C81.4080003,39.8981632 85.4832038,35.8150002 90.5102222,35.815 C92.8195238,35.7772638 95.0495042,36.658699 96.7111111,38.266 L99.1194074,35.853 C96.8531808,33.5537304 93.7542512,32.2719828 90.5291852,32.3 C86.0406427,32.1042877 81.7908455,34.3305397 79.3898105,38.1353502 C76.9887755,41.9401607 76.8037695,46.7415388 78.9048811,50.7205036 C81.0059928,54.6994685 85.0718322,57.2473903 89.5620741,57.399 L90.5291852,57.399 C93.6504647,57.5786472 96.7021113,56.4280206 98.9308146,54.2311565 C101.159518,52.0342924 102.357609,48.9958935 102.229333,45.866 C102.235452,45.1458776 102.171946,44.4268541 102.039704,43.719 L90.5291852,43.814 Z M176.45037,46.474 C175.318577,42.9580573 171.785584,40.8047077 168.149043,41.4143631 C164.512502,42.0240185 161.871548,45.212412 161.943704,48.906 L161.943704,49.4 C161.897947,51.4964109 162.685491,53.5251219 164.132987,55.0395868 C165.580483,56.5540517 167.569284,57.4301353 169.66163,57.475 L169.946074,57.475 C172.640443,57.4895521 175.162109,56.1477465 176.658963,53.903 L173.909333,52.003 C173.074481,53.3974901 171.569031,54.2491173 169.946074,54.245 C168.265181,54.3091917 166.716001,53.3371797 166.039704,51.794 L176.82963,47.329 L176.45037,46.474 Z M165.451852,49.172 C165.373815,48.0003867 165.763532,46.8457055 166.535253,45.9620153 C167.306975,45.0783252 168.397475,44.538027 169.566815,44.46 C170.817175,44.377448 171.996096,45.0502968 172.562963,46.17 L165.451852,49.172 Z M156.690963,57 L160.237037,57 L160.237037,33.25 L156.690963,33.25 L156.690963,57 Z M150.888296,43.13 L150.755556,43.13 C149.674595,41.9190859 148.129294,41.2278719 146.507852,41.23 C142.203538,41.4391362 138.820906,44.9967112 138.820906,49.3145 C138.820906,53.6322888 142.203538,57.1898638 146.507852,57.399 C148.13455,57.4264051 149.689867,56.7307108 150.755556,55.499 L150.869333,55.499 L150.869333,56.658 C150.869333,59.755 149.219556,61.408 146.564741,61.408 C144.756249,61.3655871 143.152788,60.2319635 142.506667,58.539 L139.415704,59.831 C140.584493,62.7495105 143.426501,64.6453655 146.564741,64.6 C150.71763,64.6 154.149926,62.149 154.149926,56.183 L154.149926,41.8 L150.888296,41.8 L150.888296,43.13 Z M146.830222,54.302 C144.294661,54.0781036 142.349988,51.9503605 142.349988,49.4 C142.349988,46.8496395 144.294661,44.7218964 146.830222,44.498 C149.337647,44.6309493 151.26387,46.7734879 151.134815,49.286 L151.134815,49.4 C151.342574,51.886395 149.501123,54.0715434 147.019852,54.283 L146.830222,54.283 L146.830222,54.302 Z M193.061926,33.25 L184.566519,33.25 L184.566519,57 L188.112593,57 L188.112593,47.994 L193.061926,47.994 C195.816645,48.1922912 198.451151,46.832167 199.888839,44.4694486 C201.326528,42.1067303 201.326528,39.1372697 199.888839,36.7745514 C198.451151,34.411833 195.816645,33.0517088 193.061926,33.25 Z M193.061926,44.65 L188.112593,44.65 L188.112593,36.556 L193.137778,36.556 C195.384227,36.556 197.205333,38.3806635 197.205333,40.6315 C197.205333,42.8823365 195.384227,44.707 193.137778,44.707 L193.061926,44.65 Z M214.926222,41.23 C212.281242,41.0642082 209.791348,42.4908506 208.592593,44.859 L211.740444,46.17 C212.374577,44.9989695 213.638874,44.3134256 214.964148,44.422 C215.864606,44.3149957 216.770553,44.5713826 217.482078,45.1345854 C218.193603,45.6977883 218.652224,46.5215152 218.756741,47.424 L218.756741,47.728 C217.617811,47.1237983 216.347671,46.8105378 215.058963,46.816 C211.664593,46.816 208.232296,48.716 208.232296,52.155 C208.375727,55.1659932 210.914953,57.4981633 213.921185,57.38 L214.072889,57.38 C215.891872,57.5108779 217.637109,56.636555 218.624,55.1 L218.737778,55.1 L218.737778,57 L222.151111,57 L222.151111,47.861 C222.151111,43.7 219.003259,41.287 214.964148,41.287 L214.926222,41.23 Z M214.490074,54.245 C213.333333,54.245 211.721481,53.656 211.721481,52.231 C211.721481,50.331 213.731556,49.704 215.514074,49.704 C216.640554,49.6761496 217.753848,49.9517361 218.737778,50.502 C218.492579,52.6288886 216.721111,54.249827 214.584889,54.302 L214.490074,54.245 Z M234.647704,41.8 L230.58963,52.098 L230.475852,52.098 L226.266074,41.8 L222.473481,41.8 L228.788148,56.202 L225.185185,64.201 L228.882963,64.201 L238.592,41.8 L234.647704,41.8 Z M202.770963,57 L206.317037,57 L206.317037,33.25 L202.770963,33.25 L202.770963,57 Z" id="Shape" fill="#FFFFFF"></path>
            <path d="M19.7973333,14.326 C19.1928635,15.0747055 18.8946456,16.0254341 18.962963,16.986 L18.962963,59.014 C18.9052277,59.9795896 19.2171898,60.9308942 19.8352593,61.674 L19.968,61.807 L43.4251852,38.285 L43.4251852,37.734 L19.9300741,14.193 L19.7973333,14.326 Z" id="Shape" fill="url(#linearGradient-1)"></path>
            <path d="M51.2,46.132 L43.4251852,38.285 L43.4251852,37.734 L51.2,29.868 L51.3706667,29.963 L60.6814815,35.264 C63.3362963,36.765 63.3362963,39.235 60.6814815,40.755 L51.4085926,46.037 L51.2,46.132 Z" id="Shape" fill="url(#linearGradient-2)"></path>
            <path d="M51.4275556,46.037 L43.4251852,38 L19.7973333,61.674 C20.9137166,62.6572926 22.570532,62.7051787 23.7416296,61.788 L51.4465185,46.018" id="Shape" fill="url(#linearGradient-3)"></path>
            <path d="M51.4275556,29.982 L23.7226667,14.212 C22.551569,13.2948213 20.8947536,13.3427074 19.7783704,14.326 L43.4251852,38 L51.4275556,29.982 Z" id="Shape" fill="url(#linearGradient-4)"></path>
            <path d="M51.2,45.847 L23.7226667,61.522 C22.598236,62.3643393 21.0545047,62.3643393 19.9300741,61.522 L19.7973333,61.655 L19.9300741,61.788 C21.052389,62.6366906 22.6003517,62.6366906 23.7226667,61.788 L51.4275556,46.018 L51.2,45.847 Z" id="Shape" fill="#000000" opacity="0.2"></path>
            <path d="M19.7973333,61.408 C19.1792639,60.6648942 18.8673017,59.7135896 18.925037,58.748 L18.925037,59.033 C18.8673017,59.9985896 19.1792639,60.9498942 19.7973333,61.693 L19.9300741,61.56 L19.7973333,61.408 Z M60.6814815,40.47 L51.2,45.847 L51.3706667,46.018 L60.6814815,40.736 C61.7568144,40.2298651 62.4800586,39.1863594 62.5777778,38 C62.3616559,39.0731921 61.6613091,39.9854212 60.6814815,40.47 Z" id="Shape" fill="#000000" opacity="0.12"></path>
            <path d="M23.7226667,14.478 L60.6814815,35.53 C61.6613091,36.0145788 62.3616559,36.9268079 62.5777778,38 C62.4800586,36.8136406 61.7568144,35.7701349 60.6814815,35.264 L23.7226667,14.212 C21.0868148,12.692 18.962963,13.946 18.962963,16.986 L18.962963,17.271 C18.962963,14.231 21.0868148,12.977 23.7226667,14.478 Z" id="Shape" fill="#FFFFFF" opacity="0.25"></path>
        </g>
    </g>
</svg>