<?xml version="1.0" encoding="UTF-8"?>
<svg width="549px" height="151px" viewBox="0 0 549 151" version="1.1" xmlns="http://www.w3.org/2000/svg" xmlns:xlink="http://www.w3.org/1999/xlink">
    <!-- Generator: Sketch 48.1 (47250) - http://www.bohemiancoding.com/sketch -->
    <title>hatcx_cost_logo</title>
    <desc>Created with Sketch.</desc>
    <defs>
        <polygon id="path-1" points="0 151 553 151 553 0 0 0"></polygon>
    </defs>
    <g id="Desktop-HD" stroke="none" stroke-width="1" fill="none" fill-rule="evenodd" transform="translate(-735.000000, -1177.000000)">
        <g id="Content" transform="translate(735.000000, 1177.000000)">
            <g id="hatcx_cost_logo">
                <path d="M450.003603,93 C443.590907,93 439,87.9220779 439,81.5746753 C439,75.2272727 443.590907,70 450.003603,70 C452.69985,70 455.03174,70.8961039 457,72.1655844 L456.124813,73.5097403 C454.375896,72.3896104 452.408364,71.5681818 450.003603,71.5681818 C444.465366,71.5681818 440.676046,75.9000974 440.676046,81.4253247 C440.676046,87.025974 444.465366,91.4318182 450.003603,91.4318182 C452.408364,91.4318182 454.375896,90.6103896 456.124813,89.4902597 L457,90.8351623 C455.104611,92.1038961 452.69985,93 450.003603,93 Z" id="Fill-1" fill="#18B4A9"></path>
                <path d="M480.460208,93 C473.775087,93 469,87.9967532 469,81.5007468 C469,75.0032468 473.854671,70 480.539792,70 C487.224913,70 492,74.9285714 492,81.4253247 C492,87.9220779 487.065744,93 480.460208,93 M480.460208,71.4935065 C474.730104,71.4935065 470.83045,75.9000974 470.83045,81.4253247 C470.83045,87.025974 474.650519,91.4318182 480.460208,91.4318182 C486.190311,91.4318182 490.089965,87.025974 490.089965,81.4253247 C490.16955,75.8246753 486.269896,71.4935065 480.460208,71.4935065" id="Fill-3" fill="#18B4A9"></path>
                <path d="M516.850059,93 C513.520334,93 510.62873,91.9552922 508,90.3863636 L508.963868,89.1168831 C511.329725,90.5357143 513.871708,91.5819156 516.93856,91.5819156 C520.705531,91.5819156 523.159012,89.6396104 523.159012,87.1753247 C523.159012,80.9025974 509.49049,83.1428571 509.49049,75.6753247 C509.49049,72.762987 512.381217,70 517.288181,70 C520.005412,70 522.458018,70.7467532 524.824751,72.1655844 L523.860007,73.5097403 C521.581774,72.0909091 519.654038,71.4935065 517.288181,71.4935065 C513.345085,71.4935065 511.329725,73.4350649 511.329725,75.5267208 C511.329725,81.8741234 525,79.4837662 525,86.8766234 C524.911499,90.0884091 521.757899,93 516.850059,93" id="Fill-5" fill="#18B4A9"></path>
                <path d="M541.646457,71.9593909 L541.646457,86.5989848 C541.646457,89.2284264 542.9836,90.5076142 545.5836,90.5076142 C546.622857,90.5076142 547.6636,90.3654822 548.48,90.1522843 L548.628571,91.6446701 C547.589314,91.857868 546.697886,92 545.5836,92 C541.942857,92 539.937143,90.2944162 539.937143,86.5989848 L539.937143,72.0304569 L536,72.0304569 L536,71.248731 L539.937143,70.5380711 L539.937143,65.1370558 L541.646457,64 L541.646457,70.6091371 L549,70.6091371 L549,72.1015228 L541.646457,72.1015228 L541.646457,71.9593909 Z" id="Fill-7" fill="#18B4A9"></path>
                <path d="M395.839111,93.6383764 L382.083129,74.0461255 C382.003489,73.9704797 382.003489,73.8191882 382.083129,73.6678967 L395.356445,55.3616236 C395.518138,55.0590406 395.597778,54.7564576 395.43689,54.4538745 C395.276805,54.1512915 394.954224,54 394.632446,54 L389.887035,54 C389.564453,54 389.24348,54.1512915 389.082591,54.3782288 L379.106689,68.6752768 C379.027049,68.7509225 378.9458,68.8265683 378.785716,68.8265683 C378.624827,68.8265683 378.543578,68.7509225 378.463134,68.6752768 L368.488036,54.3782288 C368.327952,54.1512915 368.00537,54 367.683592,54 L362.938181,54 C362.615599,54 362.294626,54.1512915 362.133737,54.4538745 C361.972044,54.7564576 361.972044,55.0590406 362.213377,55.3616236 L375.24536,73.6678967 C375.325805,73.8191882 375.325805,73.8948339 375.24536,74.0461255 L361.167601,93.6383764 C361.006712,93.9409594 360.927072,94.2435424 361.087961,94.5461255 C361.248045,94.8494649 361.569823,95 361.892404,95 L366.637816,95 C366.960398,95 367.281371,94.8494649 367.442259,94.6217712 L378.302245,79.1900369 C378.383494,79.1143911 378.463134,79.0387454 378.624827,79.0387454 C378.785716,79.0387454 378.865356,79.1143911 378.9458,79.1900369 L389.645702,94.6217712 C389.805786,94.8494649 390.127563,95 390.450145,95 L395.195557,95 C395.518138,95 395.839111,94.8494649 396,94.5461255 C396,94.1678967 396,93.8653137 395.839111,93.6383764" id="Fill-9" fill="#18B4A9"></path>
                <path d="M178.335784,54.0755064 L174.852941,54.0755064 C174.355392,54.0755064 174,54.4530387 174,54.9815838 L174,94.0939227 C174,94.6224678 174.355392,95 174.852941,95 L178.335784,95 C178.833333,95 179.188725,94.6224678 179.188725,94.0939227 L179.188725,77.1049724 C179.188725,76.878453 179.330882,76.7274401 179.544118,76.7274401 L197.455882,76.7274401 C197.669118,76.7274401 197.811275,76.878453 197.811275,77.1049724 L197.811275,94.0939227 C197.811275,94.6224678 198.166667,95 198.664216,95 L202.147059,95 C202.644608,95 203,94.6224678 203,94.0939227 L203,54.9060773 C203,54.4530387 202.644608,54 202.147059,54 L198.664216,54 C198.166667,54 197.811275,54.3775322 197.811275,54.9060773 L197.811275,71.2154696 C197.811275,71.441989 197.669118,71.5930018 197.455882,71.5930018 L179.544118,71.5930018 C179.330882,71.5930018 179.188725,71.441989 179.188725,71.2154696 L179.188725,54.9815838 C179.188725,54.4530387 178.833333,54.0755064 178.335784,54.0755064" id="Fill-11" fill="#18B4A9"></path>
                <path d="M332.400058,58.8112397 C336.640042,58.8112397 340.720027,60.2691431 343.920015,62.820474 C344.320014,63.1120546 344.800012,63.1120546 345.20001,62.820474 L347.680801,60.5607238 C347.840001,60.4149334 347.92,60.1962479 347.92,59.9775624 C347.92,59.7588769 347.840001,59.5401914 347.600001,59.3944011 C338.640035,51.8861988 324.720087,52.2506747 316.320118,60.2691431 C307.84015,68.2147164 307.920149,80.8984755 316.400118,88.8440488 C324.880886,96.7896221 338.800034,97.0812027 347.680801,89.5001053 C347.840001,89.354315 348,89.1356295 348,88.916944 C348,88.6982585 347.92,88.479573 347.680801,88.3337826 L345.20001,86.0740324 C344.880812,85.7824518 344.320014,85.7824518 343.920015,86.0740324 C340.800027,88.6982585 336.640042,90.1561618 332.320058,90.1561618 C327.840075,90.1561618 323.520091,88.5524681 320.400103,85.5637663 C313.920127,79.367677 313.920127,69.6726197 320.400103,63.4765305 C323.600091,60.4878286 327.920075,58.8112397 332.400058,58.8112397" id="Fill-13" fill="#18B4A9"></path>
                <path d="M267,54.9797794 L267,58.2959559 C267,58.8235294 267.373333,59.2003676 267.896,59.2003676 L277.901333,59.2003676 C278.124587,59.2003676 278.274667,59.3511029 278.274667,59.5772059 L278.274667,94.0955882 C278.274667,94.6231618 278.648,95 279.170667,95 L282.829333,95 C283.351253,95 283.724587,94.6231618 283.724587,94.0955882 L283.724587,59.5018382 C283.724587,59.2757353 283.874667,59.125 284.09792,59.125 L294.104,59.125 C294.626667,59.125 295,58.7481618 295,58.2205882 L295,54.9044118 C295,54.4522059 294.626667,54 294.104,54 L267.970667,54 C267.373333,54.0753676 267,54.5275735 267,54.9797794" id="Fill-15" fill="#18B4A9"></path>
                <path d="M220.956223,95 L225.148042,95 C225.543496,95 225.85986,94.7791741 226.018042,94.4854758 L230.526225,84.989228 C230.605316,84.8420108 230.684407,84.7691382 230.842588,84.7691382 L249.191683,84.7691382 C249.349865,84.7691382 249.428956,84.8420108 249.508047,84.989228 L254.016229,94.4854758 C254.174411,94.7791741 254.490775,95 254.88623,95 L259.078049,95 C259.394412,95 259.710776,94.8535189 259.868958,94.6319569 C260.02714,94.4111311 260.02714,94.043088 259.948049,93.8222621 L240.966227,54.5152603 C240.808045,54.2215619 240.491681,54 240.096227,54 C239.700772,54 239.384408,54.2215619 239.226226,54.5152603 L220.086223,93.7493896 C219.928041,94.043088 220.007132,94.3382585 220.165313,94.5583483 C220.323495,94.8535189 220.639859,95 220.956223,95 M233.215316,79.3213645 L239.700772,65.7037702 C239.779863,65.556553 239.858954,65.4829443 240.017136,65.4829443 C240.175318,65.4829443 240.254408,65.556553 240.333499,65.7037702 L246.818955,79.3213645 C246.898046,79.3957092 246.898046,79.5421903 246.818955,79.616535 C246.739864,79.6894075 246.660773,79.7637522 246.502592,79.7637522 L233.610771,79.7637522 C233.452589,79.7637522 233.373498,79.6894075 233.294407,79.616535 C233.215316,79.5421903 233.215316,79.3957092 233.215316,79.3213645" id="Fill-17" fill="#18B4A9"></path>
                <mask id="mask-2" fill="white">
                    <use xlink:href="#path-1"></use>
                </mask>
                <g id="Clip-20"></g>
                <polygon id="Fill-19" fill="#18B4A9" mask="url(#mask-2)" points="417 95 421 95 421 54 417 54"></polygon>
                <path d="M69.1635914,47 C69.3903784,47 69.6171654,46.9262295 69.8439523,46.7786885 C75.0600528,43.3114754 77.8570921,38.5901639 78.6886444,35.5655738 C79.2934096,33.4262295 78.991027,31.2131148 78.0082834,29.9590164 C77.5547095,29.3688525 76.8743486,29 76.118392,29 C74.9088614,29 72.3386091,29 70.146335,37.4836066 C69.5415697,39.6229508 68.8612088,42.2786885 68.0296565,45.5983607 C67.9540609,45.8934426 68.0296565,46.3360656 68.1808479,46.557377 C68.4076348,46.852459 68.7856131,47 69.1635914,47" id="Fill-21" fill="#18B4A9" mask="url(#mask-2)"></path>
                <path d="M116.960885,97.8703704 C116.805455,98.4925463 116.339166,98.9578189 115.795162,99.2692953 L110.432836,101.909465 C109.500257,102.376291 108.334534,102.064815 107.712815,101.211168 C106.857952,100.122942 105.847658,99.2692953 104.681935,98.6471193 C103.205353,97.948822 101.72877,97.5604475 100.174472,97.3274228 C93.1024189,96.3953241 87.7400926,100.667443 86.8075142,107.968107 C85.9526505,115.114198 90.1492537,120.55144 97.2990221,121.483539 C98.6978899,121.639666 100.096758,121.639666 101.57334,121.406641 C102.894493,121.17284 104.137931,120.70679 105.225939,119.930041 C106.080803,119.309419 107.246526,119.464769 108.023675,120.163066 L112.220278,124.358287 C112.686567,124.82356 112.919712,125.444959 112.841997,126.067135 C112.764282,126.688534 112.453423,127.232258 111.987133,127.620633 C109.267113,129.717078 106.080803,131.037551 102.739063,131.504378 C100.563047,131.8143 98.2316006,131.8143 95.9778693,131.504378 C89.9161091,130.727629 84.5537828,127.930556 80.9788986,123.581538 C77.1708698,118.997942 75.5388574,113.016975 76.3160062,106.725309 C76.6268657,104.239712 77.3262995,101.987917 78.258878,99.8906944 C78.8028821,96.2391975 79.4246011,92.5115792 79.8131755,89.7929578 C80.2017499,87.6949588 79.7354606,85.4423868 78.1034483,84.0442387 C76.7045805,82.8022171 75.0725682,81.9470165 72.9742666,81.4040689 C71.9639732,81.1702675 70.9536799,81.0156944 69.9433865,81.0156944 C63.4153371,81.0156944 58.0530108,86.2191358 55.9547092,94.6088014 L53.623263,104.006687 C53.3901184,105.094913 52.379825,105.871662 51.2918168,105.871662 L44.4529079,105.871662 C43.6757591,105.871662 42.9763253,105.560185 42.510036,104.939563 C42.0437468,104.318164 41.888317,103.541415 42.0437468,102.841564 L51.2141019,66.1021142 C51.2918168,65.7906379 51.2141019,65.4799383 51.0586722,65.1692387 C50.9032424,64.8585391 50.5923829,64.7031893 50.2815234,64.6255144 C45.3854864,63.6934156 40.9557385,60.9747942 37.9248585,57.0910494 C35.5934122,54.0625051 34.1168296,50.4886831 33.6505404,46.6833899 C33.5728255,46.061214 33.8059701,45.3621399 34.2722594,44.8184156 C34.7385486,44.2746914 35.4379825,43.9647685 36.1374164,43.9647685 L42.8208955,43.9647685 C43.9866186,43.9647685 44.996912,44.8184156 45.2300566,45.9835391 C45.4632012,47.4601389 46.0849202,48.8575103 47.0174987,50.0226337 C48.4940813,51.8868313 50.5923829,53.0519547 53.2346886,53.4403292 L53.3901184,53.4403292 C54.0118374,53.4403292 54.4781266,53.0519547 54.6335564,52.5090072 C56.5764282,44.6630658 57.8198662,39.8472222 58.6747298,36.5072016 C61.7056099,24.9344187 67.4565106,19.0303498 76.0051467,19.0303498 C80.3571796,19.0303498 84.3983531,20.9722222 87.0406588,24.3899177 C90.2269686,28.5066872 91.3149768,34.4876543 89.8383942,40.3132716 C87.8955224,48.1584362 82.8440556,54.7608025 75.2279979,59.3436214 C71.8862584,61.3631687 68.2336593,62.9166667 64.4256305,63.9264403 C64.0370561,64.0817901 63.6484817,64.3924897 63.5707669,64.8585391 L62.249614,70.218107 C62.1718991,70.4511317 62.249614,70.6841564 62.4050437,70.8395062 C62.5604735,70.994856 62.7936181,71.0725309 63.0267627,70.994856 C65.358209,70.218107 67.9227998,69.7520576 70.4096758,69.7520576 C72.2748327,69.7520576 74.1399897,69.9858591 76.0051467,70.4511317 C77.9480185,70.9171811 79.6577458,71.6162551 81.2120432,72.3930041 C85.4086464,74.5679012 88.2063819,77.5972222 90.1492537,80.1604938 C90.3823984,80.3935185 90.615543,80.7042181 90.8486876,81.0925926 C92.3252702,83.4228395 92.4029851,86.0645628 92.1698405,88.2394599 C95.2007205,87.3065844 98.4647452,86.9958848 101.8842,87.4627109 C104.526505,87.7726337 107.013381,88.4717078 109.344828,89.5599331 C109.344828,89.6368313 109.422542,89.6368313 109.422542,89.6368313 C109.500257,89.6368313 109.500257,89.7145062 109.577972,89.7145062 C109.655687,89.7929578 109.733402,89.7929578 109.811117,89.869856 C112.064848,91.0349794 114.00772,92.666929 115.562017,94.5303498 C116.028307,95.0740741 116.494596,95.6954733 116.88317,96.3168724 C117.19403,96.8605967 117.34946,97.4819959 116.960885,97.8703704 M118.437468,0 L32.5625322,0 C14.5326814,0 0,14.6028807 0,32.5457819 L0,118.454218 C0,136.474794 14.6103963,151 32.5625322,151 L118.437468,151 C136.389604,151 151,136.397896 151,118.454218 L151,32.5457819 C151,14.6028807 136.389604,0 118.437468,0" id="Fill-22" fill="#18B4A9" mask="url(#mask-2)"></path>
            </g>
        </g>
    </g>
</svg>