<?xml version="1.0" encoding="UTF-8"?>
<svg width="204px" height="53px" viewBox="0 0 204 53" version="1.1" xmlns="http://www.w3.org/2000/svg" xmlns:xlink="http://www.w3.org/1999/xlink">
    <!-- Generator: Sketch 48.1 (47250) - http://www.bohemiancoding.com/sketch -->
    <title>Hatcx</title>
    <desc>Created with Sketch.</desc>
    <defs></defs>
    <g id="Nav" stroke="none" stroke-width="1" fill="none" fill-rule="evenodd">
        <g fill="#FFFFFF" id="Hatcx">
            <g>
                <path d="M41.5737352,0 L11.4262554,0 C5.11570701,0 -2.05623753e-06,5.1157107 0,11.4262678 L0,41.5737412 C6.81057757e-07,47.8842864 5.11570701,52.9999964 11.426253,52.9999964 L41.5737352,53 C47.8842669,52.9999964 52.9999763,47.8842935 52.9999763,41.5737436 L53,11.4262441 C52.9999763,5.1157107 47.8842669,0 41.5737352,0 Z M42.1334321,27.8090977 L41.9579375,28.5205758 C41.8266956,29.0502341 41.6923267,29.5901619 41.5547596,30.1403688 C41.4627481,30.5272743 41.1176578,30.8007834 40.7199759,30.802039 L40.6606801,30.802039 C40.4448654,30.7878084 40.2337886,30.7806944 40.0298425,30.7806944 C37.0440185,30.7806944 35.4906499,32.3103616 33.8162971,34.9546708 C33.7246647,35.0994894 33.7246647,35.2841615 33.8162971,35.4289825 C34.7127692,36.7546988 35.9720755,38.2250751 38.5191394,39.0669849 C38.9453202,39.2134973 39.1891837,39.6610915 39.0812053,40.0986222 C38.8914731,40.8559497 38.7001774,41.6259182 38.5072945,42.4085393 C38.4090526,42.7980649 38.0576133,43.0702118 37.6558805,43.0678381 C37.5658116,43.0678594 37.4762876,43.0542638 37.3902696,43.027525 C35.1811891,42.3615386 33.2007158,41.0945945 31.6700184,39.3681733 C31.5819395,39.2678443 31.4533508,39.2125308 31.3199532,39.2175909 C31.1865318,39.2226535 31.0624916,39.2875448 30.9822777,39.3942558 C29.5593219,41.2915213 27.156932,43.8219935 22.7125888,43.8219935 C22.5702933,43.8219935 22.4256263,43.8219935 22.278588,43.8219935 C22.0198283,43.8135978 21.7789473,43.6879207 21.6240345,43.4804874 C21.4637986,43.2696451 21.4079615,42.9974531 21.4722511,42.7405553 C21.6856945,41.8883712 21.8841161,41.0978423 22.0675184,40.3689782 C22.1615127,39.9942399 22.4924626,39.7271602 22.878598,39.7144245 C25.5655885,39.6527645 26.9553312,38.2108469 28.7198002,35.3934121 C28.8034728,35.2514624 28.8034728,35.0752689 28.7198002,34.9333239 C27.5007905,32.7799329 26.6209486,31.4399932 24.6881157,30.956189 C24.3313462,30.8667692 23.9649823,30.821377 23.5971852,30.8210074 C21.251696,30.8210074 19.3283485,32.6803217 18.5789289,35.6732512 L17.7227888,39.0337764 C17.6283917,39.4231338 17.2791438,39.6968443 16.8785078,39.6954442 L14.4666159,39.6954442 C14.1987379,39.695963 13.9455453,39.5730955 13.7801876,39.3623456 C13.6148299,39.1515957 13.5557308,38.8764401 13.6199635,38.616375 L16.897481,25.4659792 C16.9270673,25.34843 16.9069735,25.2238924 16.8419259,25.1215995 C16.7768782,25.0193303 16.6726049,24.9483317 16.5536059,24.9252578 C14.8013016,24.5934336 13.2293673,23.6359361 12.1306121,22.2311501 C11.2953759,21.1466985 10.7677811,19.8572111 10.603319,18.4982886 C10.5721265,18.2527193 10.6481639,18.0055865 10.8120172,17.8200237 C10.9782491,17.6314286 11.2175523,17.5234501 11.4689445,17.5235686 L13.8594918,17.5235686 C14.2830336,17.5273116 14.6438114,17.8322714 14.7180033,18.2492843 C14.8186948,18.7767631 15.0421116,19.2731608 15.3701855,19.6983231 C15.9217023,20.3887883 16.7257247,20.8309124 17.6042115,20.9267854 L17.6682428,20.9267854 C17.8727101,20.9234451 18.0495716,20.7834853 18.0998652,20.5852721 C18.799484,17.7630969 19.2287397,16.0508162 19.5394158,14.8555435 C20.6089993,10.70529 22.6959846,8.60169994 25.7434521,8.60169994 C27.2850231,8.58317446 28.7456696,9.29022255 29.6873893,10.5108198 C30.8376037,11.9812032 31.2146754,14.1085068 30.6929296,16.2025973 C29.9933204,19.0129275 28.1814479,21.3726526 25.4493897,23.0208995 C24.2436463,23.744341 22.9413098,24.2929038 21.581343,24.6501709 C21.4239925,24.6916045 21.3014519,24.8150524 21.2611838,24.9727086 L20.7868676,26.8960424 C20.7660726,26.9761616 20.7913592,27.0611845 20.8525525,27.1169031 C20.9137434,27.1726217 21.0007634,27.189868 21.0785728,27.161677 C21.925725,26.8624738 22.8173312,26.708537 23.7157649,26.7063339 C24.389955,26.7078974 25.061397,26.7923044 25.7150006,26.9577071 C28.5608886,27.6691853 30.1047812,29.4739536 31.0107293,30.7664615 C31.0899719,30.8826556 31.2198872,30.9540901 31.3604629,30.9587759 C31.5010149,30.9634594 31.6353838,30.9008376 31.7222072,30.7901798 C33.9657091,27.9751163 36.5886754,26.661252 39.9776537,26.661252 C40.4258898,26.661252 40.8954705,26.6849893 41.3721581,26.7324164 C41.6250948,26.7578356 41.8544602,26.8920151 42.0006267,27.1000122 C42.1451586,27.3061616 42.1927515,27.5650209 42.1310394,27.8090977 L42.1334321,27.8090977 Z M23.18216,19.5085908 C23.2670527,19.5056296 23.3493347,19.478481 23.4193169,19.4303195 C25.3616424,18.1259548 26.3956343,16.3472714 26.6897203,15.2065564 C26.9007971,14.3883554 26.8011812,13.5464408 26.4359544,13.0721221 C26.2715704,12.8430883 26.0064097,12.7078665 25.7245002,12.7092642 C25.2691572,12.7092879 24.3205199,12.7092879 23.5046929,15.8800833 C23.2983659,16.6793087 23.030379,17.7014559 22.7291883,18.9441558 C22.6944874,19.0770323 22.7243603,19.2184846 22.8098216,19.3259656 C22.8974125,19.4415248 23.0348019,19.5084724 23.1797863,19.5062219 L23.18216,19.5085908 Z" id="Fill-1"></path>
                <path d="M85.1304037,13.7488718 L82.7453194,13.7488718 C82.430373,13.7488718 82.1750832,13.9999291 82.1750832,14.309654 L82.1750832,24.5807123 C82.1750832,24.7015341 82.0755057,24.7994606 81.9526471,24.7994606 L69.7479929,24.7994606 C69.6251579,24.7994606 69.5255805,24.7015341 69.5255805,24.5807123 L69.5255805,14.3073296 C69.5255805,13.9976047 69.270267,13.7465241 68.9553442,13.7465241 L66.5702599,13.7465241 C66.2553134,13.7465241 66,13.9976047 66,14.3073296 L66,38.9727829 C66,39.2824939 66.2553134,39.5335767 66.5702599,39.5335697 L68.9577077,39.5335721 C69.2726306,39.5335697 69.527944,39.2824939 69.527944,38.9727829 L69.527944,28.2432992 C69.5279677,28.1225007 69.6275215,28.0245741 69.7503801,28.0245741 L81.9550106,28.0245741 C82.0778457,28.0245741 82.1774467,28.1225007 82.1774467,28.2432992 L82.1774467,38.9704562 C82.1774467,39.2801718 82.4327366,39.5312477 82.747683,39.5312477 L85.1327673,39.5312477 C85.4477137,39.5312477 85.7030272,39.2801718 85.7030272,38.9704562 L85.7030272,14.3050052 C85.7004273,13.9961868 85.4444284,13.7475701 85.1304037,13.7488718 Z M108.737562,13.3300168 C108.646044,13.1292128 108.443131,13 108.219395,13 C107.995612,13 107.792722,13.1292361 107.701181,13.3300168 L95.9697856,38.7493951 C95.8890458,38.922597 95.9037,39.1243192 96.0085955,39.2844975 C96.1135146,39.4446758 96.29421,39.541203 96.4879759,39.5405452 L99.0718133,39.5405499 C99.2968966,39.5403942 99.5008495,39.4100331 99.5923672,39.2077996 L102.365503,33.0856485 C102.401122,33.0064193 102.480917,32.95532 102.569007,32.9553386 L113.801144,32.9553409 C113.889235,32.95532 113.969029,33.0064193 114.004648,33.0856531 L116.747011,39.2054752 C116.837843,39.4086152 117.041938,39.5399897 117.267565,39.5405545 L119.851426,39.5405545 C120.04401,39.5396341 120.223121,39.4431719 120.327615,39.2840744 C120.432132,39.1249793 120.447921,38.924761 120.369592,38.7517242 L108.737562,13.3300168 Z M112.32703,29.6185242 C112.286045,29.6809317 112.215658,29.718617 112.140094,29.7185822 L104.230034,29.7185822 C104.154825,29.7186008 104.084697,29.6812315 104.043618,29.619254 C104.002563,29.5572742 103.996134,29.4790887 104.026553,29.4114304 L107.982777,20.6156294 C108.018964,20.5377624 108.098025,20.4878112 108.185076,20.4878112 C108.27215,20.4878112 108.351212,20.5377624 108.387398,20.6156294 L112.343598,29.4067723 C112.375625,29.4754324 112.369385,29.5554891 112.32703,29.6185265 L112.32703,29.6185242 Z M142.812642,13.7814365 L125.84491,13.7814365 C125.529964,13.7814365 125.274674,14.032517 125.274674,14.3422187 L125.274674,16.4364703 C125.274674,16.7461719 125.529964,16.9972524 125.84491,16.9972524 L132.344743,16.9972524 C132.467602,16.9972524 132.567156,17.095179 132.567156,17.2160007 L132.567156,38.9913989 C132.567156,39.3011076 132.822446,39.5521811 133.137392,39.5521858 L135.522476,39.5521881 C135.837423,39.5521858 136.092713,39.3011099 136.092713,38.9913943 L136.092713,17.2043555 C136.092713,17.083557 136.19229,16.9856305 136.315149,16.9856305 L142.814982,16.9856305 C143.129905,16.9856305 143.385218,16.73455 143.385218,16.4248251 L143.385218,14.3305967 C143.378766,14.0245211 143.123925,13.7801116 142.812618,13.7814365 L142.812642,13.7814365 Z M203.935254,38.6795891 L195.653686,26.3724679 C195.608282,26.3013183 195.608282,26.2108996 195.65371,26.1397733 L203.639476,14.6424135 C203.757749,14.4704087 203.769685,14.2482204 203.670557,14.064919 C203.571428,13.8815944 203.377379,13.7671647 203.166241,13.7674901 L200.326854,13.7674901 C200.135782,13.7683502 199.957923,13.8636501 199.853642,14.0211043 L193.841202,23.0123771 C193.800076,23.0738107 193.730279,23.1107917 193.655496,23.1107917 C193.580665,23.1107685 193.510892,23.0738107 193.469742,23.0123771 L187.464416,14.0001615 C187.360112,13.8427074 187.182276,13.7474074 186.991181,13.7465241 L184.139952,13.7465241 C183.930398,13.7473609 183.738215,13.861163 183.639394,14.0428838 C183.540597,14.2245813 183.551068,14.4449567 183.666717,14.6167988 L191.489255,26.1095097 C191.534706,26.180636 191.534706,26.271078 191.489255,26.3422043 L183.006571,38.6516685 C182.888321,38.823664 182.876361,39.0458431 182.97549,39.2291584 C183.074642,39.4124691 183.268691,39.5269057 183.479806,39.5265919 L186.319193,39.5265919 C186.509839,39.5262549 186.687603,39.4318661 186.792452,39.2752906 L193.318308,29.5440624 C193.359387,29.4832331 193.428616,29.4465705 193.50288,29.4463334 L193.502856,29.4463334 C193.577592,29.4470912 193.646916,29.4846765 193.687427,29.5463937 L200.12101,39.2729569 C200.225338,39.4304133 200.403197,39.5257296 200.594268,39.5265919 L203.433632,39.5265919 C203.642383,39.5251926 203.833691,39.4117369 203.932323,39.2308111 C204.030955,39.0498876 204.021193,38.8304141 203.906867,38.6586533 L203.935254,38.6795891 Z M172.309169,34.1816353 C172.09907,33.9770448 171.762568,33.9708992 171.544883,34.1676703 C169.634476,35.8923882 167.134427,36.8475844 164.541064,36.8436422 C161.819667,36.8563822 159.211059,35.7754272 157.319561,33.8512117 C153.407512,29.8116577 153.407512,23.4637967 157.319561,19.4242404 C159.211059,17.5000411 161.819667,16.4190838 164.541064,16.4318215 C167.111146,16.4286603 169.5903,17.3669001 171.495201,19.0635649 C171.714139,19.2590693 172.050664,19.2508874 172.259486,19.0449465 L173.75017,17.5789774 C173.857074,17.4740777 173.915786,17.3307558 173.912642,17.1822506 C173.909522,17.0337454 173.844831,16.8929571 173.733601,16.7924737 C168.307564,11.8933815 159.900349,12.137791 154.778055,17.34354 C149.655761,22.549289 149.683698,30.8206728 154.841021,35.9928599 C159.998343,41.1650401 168.407023,41.3545522 173.799876,36.4201362 C173.908884,36.3174353 173.970573,36.1753826 173.970573,36.0268843 C173.970573,35.8783907 173.908884,35.736338 173.799852,35.6336302 L172.309169,34.1816353 Z" id="Fill-3"></path>
            </g>
        </g>
    </g>
</svg>