<?xml version="1.0" encoding="UTF-8"?>
<svg width="256px" height="256px" viewBox="0 0 256 256" version="1.1" xmlns="http://www.w3.org/2000/svg" xmlns:xlink="http://www.w3.org/1999/xlink">
    <!-- Generator: Sketch 48.1 (47250) - http://www.bohemiancoding.com/sketch -->
    <title>Fill 1</title>
    <desc>Created with Sketch.</desc>
    <defs></defs>
    <g id="Desktop-HD" stroke="none" stroke-width="1" fill="none" fill-rule="evenodd" transform="translate(-230.000000, -110.000000)">
        <path d="M430.808985,110 L285.190969,110 C254.70983,110 229.99999,134.709848 230,165.191029 L230,310.809014 C230.000003,341.290138 254.70983,365.999982 285.190958,365.999982 L430.808985,366 C461.290044,365.999982 485.999886,341.290173 485.999886,310.809026 L486,165.190915 C485.999886,134.709848 461.290044,110 430.808985,110 Z M432.8843,244.710331 L432.039106,248.144432 C431.407036,250.700941 430.759905,253.307019 430.097373,255.96271 C429.654239,257.830192 427.99226,259.150342 426.076996,259.156402 L425.791423,259.156402 C424.752045,259.087716 423.735484,259.053378 422.753265,259.053378 C408.373328,259.053378 400.892196,266.436645 392.828396,279.199969 C392.387088,279.898967 392.387088,280.790326 392.828396,281.489336 C397.145868,287.888189 403.210775,294.985275 415.477613,299.048933 C417.53013,299.756107 418.704594,301.916516 418.184562,304.028352 C417.270799,307.683755 416.349505,311.400172 415.420567,315.177661 C414.947428,317.057789 413.254872,318.371365 411.320098,318.359907 C410.88632,318.36001 410.455166,318.294388 410.040898,318.165328 C399.401811,314.950802 389.863713,308.835625 382.491767,300.502683 C382.067573,300.018424 381.448281,299.751441 380.805829,299.775865 C380.163262,299.800301 379.565876,300.113513 379.17956,300.628576 C372.326505,309.786134 360.756427,322 339.35216,322 C338.666854,322 337.970128,322 337.261981,322 C336.015776,321.959476 334.855677,321.352869 334.109606,320.351647 C333.337898,319.333972 333.068983,318.020179 333.378606,316.780207 C334.406564,312.666958 335.362177,308.851301 336.245455,305.333283 C336.698138,303.524528 338.292016,302.235411 340.151671,302.173939 C353.092406,301.876324 359.785504,294.9166 368.28331,281.317648 C368.686283,280.632497 368.686283,279.782061 368.28331,279.096933 C362.412474,268.703131 358.175094,262.235625 348.866435,259.900441 C347.148208,259.468837 345.383774,259.249742 343.612438,259.247958 C332.316398,259.247958 323.053421,268.222336 319.444164,282.668351 L315.320933,298.888645 C314.86631,300.767962 313.184308,302.089084 311.254817,302.082326 L299.638977,302.082326 C298.348858,302.084831 297.129464,301.491784 296.33309,300.474555 C295.536716,299.457325 295.25209,298.129228 295.56144,296.873968 L311.346193,233.400768 C311.488683,232.833392 311.39191,232.232284 311.078636,231.738545 C310.765362,231.244921 310.263174,230.902231 309.690067,230.79086 C301.250847,229.18924 293.680301,224.567673 288.388619,217.787173 C284.366063,212.552835 281.82513,206.328848 281.033068,199.769718 C280.882843,198.584425 281.249044,197.391586 282.038174,196.495927 C282.838758,195.585632 283.991259,195.064451 285.201981,195.065023 L296.715025,195.065023 C298.754831,195.083089 300.492362,196.555043 300.849676,198.567845 C301.334613,201.113835 302.410604,203.509805 303.990631,205.561941 C306.646775,208.894619 310.519003,211.028626 314.749857,211.491377 L315.058236,211.491377 C316.042965,211.475255 316.894742,210.799709 317.13696,209.84299 C320.506373,196.221158 322.573698,187.956469 324.069936,182.187229 C329.221125,162.155142 339.272192,152.001714 353.949009,152.001714 C361.373323,151.912297 368.407899,155.325016 372.943287,161.21649 C378.4828,168.31361 380.298803,178.581497 377.786039,188.689072 C374.416672,202.253733 365.690567,213.643451 352.532784,221.599068 C346.725839,225.090913 340.453696,227.738669 333.904,229.463094 C333.146189,229.663083 332.556025,230.258931 332.362091,231.019892 L330.077751,240.303274 C329.977601,240.689986 330.099383,241.100368 330.394094,241.369306 C330.688794,241.638243 331.107889,241.721486 331.482624,241.585416 C335.562568,240.141248 339.856606,239.398239 344.183526,239.387605 C347.430472,239.395152 350.664184,239.80256 353.811985,240.600912 C367.51798,244.035013 374.953475,252.746114 379.316585,258.98468 C379.698223,259.545516 380.323904,259.89031 381.000926,259.912927 C381.677834,259.935533 382.324965,259.633275 382.743112,259.099162 C393.547975,245.511655 406.180364,239.170008 422.501921,239.170008 C424.660657,239.170008 426.92219,239.284581 429.217951,239.513498 C430.436112,239.63619 431.540752,240.283835 432.2447,241.287778 C432.940776,242.282802 433.169987,243.532242 432.872777,244.710331 L432.8843,244.710331 Z M341.287597,204 C341.703322,203.986063 342.106262,203.858293 342.448969,203.631628 C351.960653,197.492843 357.024173,189.121753 358.464331,183.753159 C359.497986,179.902426 359.010161,175.940089 357.221624,173.707783 C356.416625,172.629872 355.118117,171.993472 353.73759,172.000051 C351.507748,172.000162 346.862214,172.000162 342.86706,186.923006 C341.856665,190.684434 340.544316,195.495007 339.069368,201.343576 C338.899435,201.968939 339.045725,202.634661 339.464233,203.140503 C339.893171,203.684364 340.565976,203.999443 341.275973,203.988851 L341.287597,204 Z" id="Fill-1" fill="#FFFFFF"></path>
    </g>
</svg>