<?xml version="1.0" encoding="UTF-8"?>
<svg width="45px" height="45px" viewBox="0 0 45 45" version="1.1" xmlns="http://www.w3.org/2000/svg" xmlns:xlink="http://www.w3.org/1999/xlink">
    <!-- Generator: Sketch 48.1 (47250) - http://www.bohemiancoding.com/sketch -->
    <title>Shape</title>
    <desc>Created with Sketch.</desc>
    <defs></defs>
    <g id="Footer" stroke="none" stroke-width="1" fill="none" fill-rule="evenodd" transform="translate(-208.000000, -23.000000)">
        <g fill="#FFFFFF" fill-rule="nonzero" id="linkedin">
            <g transform="translate(147.000000, 23.000000)">
                <path d="M83.5,0 C71.0735931,-7.6089797e-16 61,10.0735931 61,22.5 C61,34.9264069 71.0735931,45 83.5,45 C95.9264069,45 106,34.9264069 106,22.5 C106,16.532629 103.629471,10.8096659 99.4099026,6.59009742 C95.1903341,2.37052891 89.467371,3.65396091e-16 83.5,0 Z M76.55,33.5714286 L70.5071429,33.5714286 L70.5071429,15.4142857 L76.5428571,15.4142857 L76.55,33.5714286 Z M76,12.05 C75.3255735,12.666359 74.4341976,12.9900287 73.5214286,12.95 L73.4857143,12.95 C72.5922448,12.9895463 71.720986,12.6647575 71.0714286,12.05 C70.4668638,11.4657914 70.1351763,10.6547116 70.1571429,9.81428571 C70.134144,8.96584179 70.477698,8.14859952 71.1,7.57142857 C71.7727033,6.96313328 72.6582599,6.64484626 73.5642857,6.68571429 C74.4632786,6.64331703 75.3413896,6.96520525 76,7.57857143 C76.6091468,8.16428012 76.9479882,8.97646475 76.9357143,9.82142857 C76.9629964,10.665061 76.6213655,11.4787164 76,12.05 Z M98.2642857,33.5714286 L92.25,33.5714286 L92.25,23.85 C92.3164012,22.7988778 92.0676998,21.7518448 91.5357143,20.8428571 C91.0077474,20.1005239 90.1297871,19.6886413 89.2214286,19.7571429 C88.5246562,19.7333544 87.8417941,19.9559169 87.2928571,20.3857143 C86.7783348,20.7999218 86.3776694,21.3382391 86.1285714,21.95 C85.9786269,22.4279688 85.9109975,22.9279432 85.9285714,23.4285714 L85.9285714,33.5714286 L79.8785714,33.5714286 C79.902381,28.7047619 79.9142857,24.7595238 79.9142857,21.7357143 C79.9142857,18.7119048 79.9142857,16.9071429 79.9142857,16.3214286 L79.9142857,15.4428571 L85.9357143,15.4428571 L85.9357143,18 C86.1487375,17.6584823 86.3875268,17.3337288 86.65,17.0285714 C86.9659478,16.6813837 87.3125926,16.3634267 87.6857143,16.0785714 C88.1619865,15.7163141 88.7024183,15.4473099 89.2785714,15.2857143 C89.9585016,15.0888171 90.6636023,14.9925577 91.3714286,15 C93.2610905,14.9326215 95.0864271,15.69144 96.3714286,17.0785714 C97.6380952,18.4642857 98.2714286,20.4928571 98.2714286,23.1642857 L98.2642857,33.5714286 Z" id="Shape"></path>
            </g>
        </g>
    </g>
</svg>