<?xml version="1.0" encoding="UTF-8"?>
<svg width="45px" height="45px" viewBox="0 0 45 45" version="1.1" xmlns="http://www.w3.org/2000/svg" xmlns:xlink="http://www.w3.org/1999/xlink">
    <!-- Generator: Sketch 48.1 (47250) - http://www.bohemiancoding.com/sketch -->
    <title>Shape</title>
    <desc>Created with Sketch.</desc>
    <defs></defs>
    <g id="Footer" stroke="none" stroke-width="1" fill="none" fill-rule="evenodd" transform="translate(-268.000000, -23.000000)">
        <g fill="#FFFFFF" fill-rule="nonzero" id="linkedin">
            <g transform="translate(147.000000, 23.000000)">
                <path d="M143.5,45 C155.926407,45 166,34.9264069 166,22.5 C166,10.0735931 155.926407,7.6089797e-16 143.5,0 C131.073593,-7.6089797e-16 121,10.0735931 121,22.5 C121,34.9264069 131.073593,45 143.5,45 Z M158.857143,12.9642857 C158.000707,14.2241355 156.93254,15.3261356 155.7,16.2214286 C155.7,16.402381 155.7,16.6761905 155.7,17.0428571 C155.705446,18.7540885 155.464891,20.4572182 154.985714,22.1 C154.47693,23.8157637 153.718836,25.4474716 152.735714,26.9428571 C151.747565,28.473383 150.544822,29.8541321 149.164286,31.0428571 C147.684229,32.2899336 145.990103,33.2580056 144.164286,33.9 C142.144678,34.6186208 140.015029,34.9787997 137.871429,34.9642857 C134.421225,35.0042725 131.036311,34.0225978 128.142857,32.1428571 C128.648129,32.197514 129.156072,32.2237458 129.664286,32.2214286 C132.500532,32.2523072 135.260582,31.3036977 137.478571,29.5357143 C134.786162,29.4865839 132.421919,27.7334859 131.592857,25.1714286 C131.985093,25.2339158 132.38141,25.2673401 132.778571,25.2714286 C133.337861,25.2714339 133.894823,25.199413 134.435714,25.0571429 C133.018045,24.7858798 131.739656,24.0279416 130.821429,22.9142857 C129.878681,21.7939244 129.371478,20.3712212 129.392857,18.9071429 L129.392857,18.8285714 C130.267109,19.3209699 131.247168,19.5953862 132.25,19.6285714 C131.396139,19.0589591 130.694759,18.288913 130.207143,17.3857143 C129.132024,15.4386835 129.161879,13.0693235 130.285714,11.15 C131.846558,13.0803389 133.792732,14.6640376 136,15.8 C138.246031,16.9620888 140.716757,17.6248477 143.242857,17.7428571 C143.141551,17.2733275 143.088892,16.7946094 143.085714,16.3142857 C143.078059,14.636058 143.741836,13.024457 144.929205,11.8384294 C146.116574,10.6524019 147.728925,9.99044705 149.407143,10 C151.15483,9.96887427 152.831143,10.6924998 154.007143,11.9857143 C155.416424,11.714557 156.767619,11.199701 158,10.4642857 C157.54644,11.9271019 156.559821,13.1661116 155.235714,13.9357143 C156.484792,13.7956068 157.705634,13.4681224 158.857143,12.9642857 Z" id="Shape"></path>
            </g>
        </g>
    </g>
</svg>